<?xml version="1.0"?>
<svg xmlns="http://www.w3.org/2000/svg" id="Layer_3" enable-background="new 0 0 64 64" height="512px" viewBox="0 0 64 64" width="512px" class=""><g><g><g fill="#f4b2b0"><path d="m53 32c-1.657 0-3-1.343-3-3 0-1.657 1.343-3 3-3h2c1.657 0 3 1.343 3 3 0 1.657-1.343 3-3 3z" data-original="#F4B2B0" class="active-path" style="fill:#FF7330" data-old_color="#F4B2B0"/><path d="m50 38 4-8 4 8-4-2z" data-original="#F4B2B0" class="active-path" style="fill:#FF7330" data-old_color="#F4B2B0"/><path d="m62 6c0-2.209-1.791-4-4-4h-40c-2.209 0-4 1.791-4 4v4h48z" data-original="#F4B2B0" class="active-path" style="fill:#FF7330" data-old_color="#F4B2B0"/></g><g fill="#b3404a"><path d="m58 1h-40c-2.757 0-5 2.243-5 5v3h-7c-2.757 0-5 2.243-5 5v32c0 2.757 2.243 5 5 5h14v4h-1c-1.654 0-3 1.346-3 3v4c0 .553.447 1 1 1h22c.553 0 1-.447 1-1v-4c0-1.654-1.346-3-3-3h-1v-4h14c2.757 0 5-2.243 5-5v-3h3c2.757 0 5-2.243 5-5v-32c0-2.757-2.243-5-5-5zm-40 2h40c1.654 0 3 1.346 3 3v3h-46v-3c0-1.654 1.346-3 3-3zm0 40h31v2h-42v-30h6v23c0 2.757 2.243 5 5 5zm-3-32h6v2h-6zm8 0h6v2h-6zm8 0h6v2h-6zm8 0h6v2h-6zm8 0h6v1c0 .552-.448 1-1 1h-5zm-9 47v3h-20v-3c0-.552.448-1 1-1h18c.552 0 1 .448 1 1zm-4-3h-12v-4h12zm19-9c0 1.654-1.346 3-3 3h-44c-1.654 0-3-1.346-3-3v-32c0-1.654 1.346-3 3-3h7v2h-7c-.553 0-1 .447-1 1v32c0 .553.447 1 1 1h44c.553 0 1-.447 1-1v-3h2zm5-5h-40c-1.654 0-3-1.346-3-3v-23h37c1.654 0 3-1.346 3-3v-1h6v27c0 1.654-1.346 3-3 3z" data-original="#B3404A" class="" style="fill:#5D002F" data-old_color="#B3404A"/><path d="m55 5h2v2h-2z" data-original="#B3404A" class="" style="fill:#5D002F" data-old_color="#B3404A"/><path d="m51 5h2v2h-2z" data-original="#B3404A" class="" style="fill:#5D002F" data-old_color="#B3404A"/><path d="m47 5h2v2h-2z" data-original="#B3404A" class="" style="fill:#5D002F" data-old_color="#B3404A"/><path d="m59 29c0-2.206-1.794-4-4-4h-2c-2.206 0-4 1.794-4 4 0 1.685 1.049 3.122 2.526 3.711l-2.421 4.842c-.192.385-.117.85.188 1.154.306.306.771.381 1.154.188l3.553-1.777 3.553 1.776c.142.072.295.106.447.106.259 0 .515-.101.707-.293.305-.305.38-.77.188-1.154l-2.421-4.842c1.477-.589 2.526-2.026 2.526-3.711zm-4.553 6.105c-.14-.07-.294-.105-.447-.105s-.307.035-.447.105l-1.316.658 1.763-3.527 1.764 3.527zm1.125-4.198-.677-1.354c-.34-.678-1.449-.678-1.789 0l-.677 1.354c-.824-.248-1.429-1.004-1.429-1.907 0-1.103.897-2 2-2h2c1.103 0 2 .897 2 2 0 .903-.605 1.659-1.428 1.907z" data-original="#B3404A" class="" style="fill:#5D002F" data-old_color="#B3404A"/><path d="m44 17h-20c-1.654 0-3 1.346-3 3v1h-1c-1.654 0-3 1.346-3 3v12c0 1.654 1.346 3 3 3h20c1.654 0 3-1.346 3-3v-1h1c1.654 0 3-1.346 3-3v-12c0-1.654-1.346-3-3-3zm-24 6h20c.552 0 1 .448 1 1v1h-22v-1c0-.552.448-1 1-1zm20 14h-20c-.552 0-1-.448-1-1v-9h22v9c0 .552-.448 1-1 1zm5-5c0 .552-.448 1-1 1h-1v-9c0-1.654-1.346-3-3-3h-17v-1c0-.552.448-1 1-1h20c.552 0 1 .448 1 1z" data-original="#B3404A" class="" style="fill:#5D002F" data-old_color="#B3404A"/><path d="m36 29c-.339 0-.677.061-1 .178-.323-.117-.661-.178-1-.178-1.654 0-3 1.346-3 3s1.346 3 3 3c.339 0 .677-.061 1-.178.323.117.661.178 1 .178 1.654 0 3-1.346 3-3s-1.346-3-3-3zm-.496 3.858c-.156-.091-.33-.136-.504-.136s-.348.045-.504.136c-.683.401-1.496-.137-1.496-.858-.001-.722.811-1.26 1.496-.858.312.182.695.182 1.008 0 .683-.4 1.496.137 1.496.858 0 .72-.814 1.257-1.496.858z" data-original="#B3404A" class="" style="fill:#5D002F" data-old_color="#B3404A"/></g></g></g> </svg>
