<?xml version="1.0"?>
<svg xmlns="http://www.w3.org/2000/svg" id="Layer_3" enable-background="new 0 0 64 64" height="512px" viewBox="0 0 64 64" width="512px" class=""><g><g><path d="m18 4h28v6h-28z" fill="#f4b2b0" data-original="#F4B2B0" class="" style="fill:#FF7330" data-old_color="#f4b2b0"/><path d="m25 32h14v6h-14z" fill="#f4b2b0" data-original="#F4B2B0" class="" style="fill:#FF7330" data-old_color="#f4b2b0"/><path d="m2 54h8v8h-8z" fill="#f4b2b0" data-original="#F4B2B0" class="" style="fill:#FF7330" data-old_color="#f4b2b0"/><path d="m54 54h8v8h-8z" fill="#f4b2b0" transform="matrix(-1 0 0 -1 116 116)" data-original="#F4B2B0" class="" style="fill:#FF7330" data-old_color="#f4b2b0"/><g fill="#b3404a"><path d="m29 13h2v2h-2z" data-original="#B3404A" class="active-path" style="fill:#5D002F" data-old_color="#B3404A"/><path d="m33 13h2v2h-2z" data-original="#B3404A" class="active-path" style="fill:#5D002F" data-old_color="#B3404A"/><path d="m37 13h2v2h-2z" data-original="#B3404A" class="active-path" style="fill:#5D002F" data-old_color="#B3404A"/><path d="m41 13h2v2h-2z" data-original="#B3404A" class="active-path" style="fill:#5D002F" data-old_color="#B3404A"/><path d="m21 17h2v2h-2z" data-original="#B3404A" class="active-path" style="fill:#5D002F" data-old_color="#B3404A"/><path d="m25 17h2v2h-2z" data-original="#B3404A" class="active-path" style="fill:#5D002F" data-old_color="#B3404A"/><path d="m29 17h2v2h-2z" data-original="#B3404A" class="active-path" style="fill:#5D002F" data-old_color="#B3404A"/><path d="m33 17h2v2h-2z" data-original="#B3404A" class="active-path" style="fill:#5D002F" data-old_color="#B3404A"/><path d="m37 17h2v2h-2z" data-original="#B3404A" class="active-path" style="fill:#5D002F" data-old_color="#B3404A"/><path d="m41 17h2v2h-2z" data-original="#B3404A" class="active-path" style="fill:#5D002F" data-old_color="#B3404A"/><path d="m21 21h2v2h-2z" data-original="#B3404A" class="active-path" style="fill:#5D002F" data-old_color="#B3404A"/><path d="m25 21h2v2h-2z" data-original="#B3404A" class="active-path" style="fill:#5D002F" data-old_color="#B3404A"/><path d="m29 21h2v2h-2z" data-original="#B3404A" class="active-path" style="fill:#5D002F" data-old_color="#B3404A"/><path d="m33 21h2v2h-2z" data-original="#B3404A" class="active-path" style="fill:#5D002F" data-old_color="#B3404A"/><path d="m62 53h-3v-3c0-.553-.447-1-1-1h-7v-2h6c.553 0 1-.447 1-1v-6c0-.553-.447-1-1-1h-6v-4c0-.553-.447-1-1-1h-10v-2c0-.553-.447-1-1-1h-6v-4h13c.553 0 1-.447 1-1v-22c0-.553-.447-1-1-1h-5v-2h-2v2h-14v-2h-2v2h-5c-.553 0-1 .447-1 1v22c0 .553.447 1 1 1h13v4h-6c-.553 0-1 .447-1 1v2h-10c-.553 0-1 .447-1 1v4h-6c-.553 0-1 .447-1 1v6c0 .553.447 1 1 1h6v2h-7c-.553 0-1 .447-1 1v3h-3c-.553 0-1 .447-1 1v8c0 .553.447 1 1 1h8c.553 0 1-.447 1-1v-8c0-.553-.447-1-1-1h-3v-2h14v2h-3c-.553 0-1 .447-1 1v8c0 .553.447 1 1 1h8c.553 0 1-.447 1-1v-8c0-.553-.447-1-1-1h-3v-3c0-.553-.447-1-1-1h-7v-2h6c.553 0 1-.447 1-1v-6c0-.553-.447-1-1-1h-6v-3h9v2c0 .553.447 1 1 1h14c.553 0 1-.447 1-1v-2h9v3h-6c-.553 0-1 .447-1 1v6c0 .553.447 1 1 1h6v2h-7c-.553 0-1 .447-1 1v3h-3c-.553 0-1 .447-1 1v8c0 .553.447 1 1 1h8c.553 0 1-.447 1-1v-8c0-.553-.447-1-1-1h-3v-2h14v2h-3c-.553 0-1 .447-1 1v8c0 .553.447 1 1 1h8c.553 0 1-.447 1-1v-8c0-.553-.447-1-1-1zm-39-48v2h2v-2h14v2h2v-2h4v4h-26v-4zm-4 6h26v14h-26zm-10 50h-6v-6h6zm16 0h-6v-6h6zm-5-16h-12v-4h12zm18-8h-12v-4h12zm6 4h12v4h-12zm1 20h-6v-6h6zm16 0h-6v-6h6z" data-original="#B3404A" class="active-path" style="fill:#5D002F" data-old_color="#B3404A"/></g></g></g> </svg>
