<?xml version="1.0"?>
<svg xmlns="http://www.w3.org/2000/svg" id="Layer_3" enable-background="new 0 0 64 64" height="512px" viewBox="0 0 64 64" width="512px" class=""><g><g><g fill="#f4b2b0"><path d="m20 11c0-5.055-4.168-9.137-9.255-8.996-4.767.131-8.71 4.161-8.745 8.93-.023 3.147 1.571 5.923 4 7.549v1.517c0 1.105.895 2 2 2h6c1.105 0 2-.895 2-2v-1.518c2.411-1.614 4-4.362 4-7.482z" data-original="#F4B2B0" class="" style="fill:#FF7330" data-old_color="#F4B2B0"/><path d="m26 14h32v8h-32z" data-original="#F4B2B0" class="" style="fill:#FF7330" data-old_color="#F4B2B0"/><path d="m8 22v4c0 1.105.895 2 2 2h2c1.105 0 2-.895 2-2v-4z" data-original="#F4B2B0" class="" style="fill:#FF7330" data-old_color="#F4B2B0"/></g><g fill="#b3404a"><path d="m58 9h-13v-4h6.184c.414 1.161 1.514 2 2.816 2 1.654 0 3-1.346 3-3s-1.346-3-3-3c-1.302 0-2.402.839-2.816 2h-7.184c-.553 0-1 .447-1 1v5h-2v-5c0-.553-.447-1-1-1h-7.184c-.414-1.161-1.514-2-2.816-2-1.654 0-3 1.346-3 3s1.346 3 3 3c1.302 0 2.402-.839 2.816-2h6.184v4h-18.198c-.394-1.955-1.365-3.744-2.829-5.168-1.951-1.899-4.528-2.878-7.255-2.828-5.321.147-9.68 4.599-9.718 9.923-.022 3.19 1.463 6.169 4 8.072v1.001c0 1.302.839 2.402 2 2.816v3.184c0 1.654 1.346 3 3 3h2c1.654 0 3-1.346 3-3v-3.184c1.161-.414 2-1.514 2-2.816v-1.001c2.515-1.887 4-4.838 4-7.999h18v2h-13c-.553 0-1 .447-1 1v22c0 .553.447 1 1 1h32c.553 0 1-.447 1-1v-22c0-.553-.447-1-1-1h-13v-2h13c1.654 0 3 1.346 3 3v25h-54v-9h-2v14c0 2.757 2.243 5 5 5h17v6h-2c-2.206 0-4 1.794-4 4v3c0 .553.447 1 1 1h24c.553 0 1-.447 1-1v-3c0-2.206-1.794-4-4-4h-2v-6h17c2.757 0 5-2.243 5-5v-30c0-2.757-2.243-5-5-5zm-4-6c.552 0 1 .448 1 1s-.448 1-1 1-1-.448-1-1 .448-1 1-1zm-24 2c-.552 0-1-.448-1-1s.448-1 1-1 1 .448 1 1-.448 1-1 1zm-18 22h-2c-.552 0-1-.448-1-1v-3h4v3c0 .552-.448 1-1 1zm-2-12c0-.552.448-1 1-1s1 .448 1 1-.448 1-1 1-1-.448-1-1zm5.443 2.651c-.277.186-.443.497-.443.831v1.518c0 .552-.448 1-1 1h-2v-3.184c1.161-.414 2-1.514 2-2.816 0-1.654-1.346-3-3-3s-3 1.346-3 3c0 1.302.839 2.402 2 2.816v3.184h-2c-.552 0-1-.448-1-1v-1.518c0-.334-.166-.646-.443-.831-2.246-1.504-3.577-4.012-3.557-6.711.03-4.259 3.518-7.819 7.772-7.937.078-.002.154-.003.23-.003 2.097 0 4.069.8 5.576 2.266 1.562 1.518 2.422 3.555 2.422 5.734 0 2.674-1.329 5.16-3.557 6.651zm11.557 17.349v-12h30v12zm30-14h-30v-6h30zm-14-8h-2v-2h2zm2 46v2h-22v-2c0-1.103.897-2 2-2h18c1.103 0 2 .897 2 2zm-6-4h-10v-6h10zm19-8h-48c-1.654 0-3-1.346-3-3v-3h54v3c0 1.654-1.346 3-3 3z" data-original="#B3404A" class="active-path" style="fill:#5D002F" data-old_color="#B3404A"/><path d="m10 7h2v3h-2z" data-original="#B3404A" class="active-path" style="fill:#5D002F" data-old_color="#B3404A"/><path d="m6 8.586h2v2.828h-2z" transform="matrix(.707 -.707 .707 .707 -5.021 7.879)" data-original="#B3404A" class="active-path" style="fill:#5D002F" data-old_color="#B3404A"/><path d="m13.586 9h2.828v2h-2.828z" transform="matrix(.707 -.707 .707 .707 -2.678 13.536)" data-original="#B3404A" class="active-path" style="fill:#5D002F" data-old_color="#B3404A"/><path d="m57 43h2v2h-2z" data-original="#B3404A" class="active-path" style="fill:#5D002F" data-old_color="#B3404A"/><path d="m53 43h2v2h-2z" data-original="#B3404A" class="active-path" style="fill:#5D002F" data-old_color="#B3404A"/><path d="m53 17h2v2h-2z" data-original="#B3404A" class="active-path" style="fill:#5D002F" data-old_color="#B3404A"/><path d="m49 17h2v2h-2z" data-original="#B3404A" class="active-path" style="fill:#5D002F" data-old_color="#B3404A"/><path d="m45 17h2v2h-2z" data-original="#B3404A" class="active-path" style="fill:#5D002F" data-old_color="#B3404A"/><path d="m37.293 24.293-4 4c-.391.391-.391 1.023 0 1.414l4 4 1.414-1.414-3.293-3.293 3.293-3.293z" data-original="#B3404A" class="active-path" style="fill:#5D002F" data-old_color="#B3404A"/><path d="m46.707 24.293-1.414 1.414 3.293 3.293-3.293 3.293 1.414 1.414 4-4c.391-.391.391-1.023 0-1.414z" data-original="#B3404A" class="active-path" style="fill:#5D002F" data-old_color="#B3404A"/><path d="m37.528 28h8.944v2h-8.944z" transform="matrix(.447 -.894 .894 .447 -2.721 53.597)" data-original="#B3404A" class="active-path" style="fill:#5D002F" data-old_color="#B3404A"/></g></g></g> </svg>
